<svg width="106" height="106" viewBox="0 0 106 106" fill="none" xmlns="http://www.w3.org/2000/svg">
<path d="M43.1056 8.92611C42.137 8.88949 41.1835 9.17411 40.3935 9.73568C39.6035 10.2972 39.0213 11.1042 38.7375 12.031L15.8062 84.6499C15.5623 85.4209 15.5348 86.244 15.7267 87.0296C15.9186 87.8151 16.3224 88.533 16.8942 89.1048C17.466 89.6766 18.1838 90.0804 18.9694 90.2723C19.7549 90.4641 20.5781 90.4366 21.3491 90.1928L93.9679 67.2614C94.8947 66.9797 95.7019 66.3985 96.263 65.6088C96.8241 64.8192 97.1074 63.8657 97.0684 62.8978C95.3989 33.8582 72.1408 10.6 43.1056 8.92611ZM44.1656 70.6667C43.0053 70.6664 41.8564 70.4376 40.7845 69.9933C39.7127 69.549 38.7388 68.8979 37.9186 68.0773C37.0983 67.2566 36.4477 66.2824 36.004 65.2103C35.5602 64.1382 35.332 62.9892 35.3323 61.8289C35.3326 60.6686 35.5614 59.5198 36.0057 58.4479C36.45 57.376 37.101 56.4022 37.9217 55.5819C38.7424 54.7617 39.7165 54.1111 40.7886 53.6673C41.8607 53.2236 43.0097 52.9953 44.17 52.9956C46.5133 52.9962 48.7605 53.9276 50.417 55.585C52.0736 57.2424 53.0039 59.49 53.0033 61.8334C53.0028 64.1767 52.0713 66.4238 50.4139 68.0804C48.7565 69.737 46.5089 70.6673 44.1656 70.6667ZM70.6656 61.8334C69.5053 61.8331 68.3564 61.6042 67.2845 61.16C66.2127 60.7157 65.2388 60.0646 64.4186 59.2439C63.5983 58.4233 62.9477 57.4491 62.504 56.377C62.0602 55.3049 61.832 54.1559 61.8323 52.9956C61.8325 51.8353 62.0614 50.6864 62.5057 49.6146C62.95 48.5427 63.601 47.5688 64.4217 46.7486C65.2423 45.9283 66.2165 45.2778 67.2886 44.834C68.3607 44.3902 69.5097 44.162 70.67 44.1623C73.0133 44.1629 75.2605 45.0943 76.917 46.7517C78.5736 48.4091 79.5039 50.6567 79.5033 53C79.5027 55.3434 78.5713 57.5905 76.9139 59.2471C75.2565 60.9036 73.0089 61.8339 70.6656 61.8334Z" fill="#FBD12F"/>
</svg>
